<?xml version="1.0" encoding="UTF-8" standalone="no" ?>
<!DOCTYPE svg PUBLIC "-//W3C//DTD SVG 1.1//EN" "http://www.w3.org/Graphics/SVG/1.1/DTD/svg11.dtd">
<svg xmlns="http://www.w3.org/2000/svg" xmlns:xlink="http://www.w3.org/1999/xlink" version="1.1" width="700" height="440" viewBox="0 0 700 440" xml:space="preserve">
<desc>Sdelano: LOGOZA.RU</desc>
<defs>

                <style type="text/css">
                    @font-face {
                        font-family: "AAvanteLtLight";
                        src: url("AAvanteLtLight.woff") format("woff");
                        src: url("AAvanteLtLight.ttf") format("truetype");
                        font-weight: normal;
                        font-style: normal;
                        font-display: swap;
                    }
                </style>
            
                <style type="text/css">
                    @import url(http://fonts.googleapis.com/css?family=Open+Sans:100,100i,200,200i,300,300i,400,400i,500,500i,600,600i,700,700i,800,800i,900,900i)
                </style>
            
</defs>
<rect x="0" y="0" width="100%" height="100%" fill="#ffffff"></rect>
<g transform="matrix(1 0 0 1 350 220)"  >
<g style=""   >
		<g transform="matrix(0.22 0 0 0.22 -86.84 0)" id="Layer_1"  >
<linearGradient id="SVGID_SVGID_1__1" gradientUnits="userSpaceOnUse" gradientTransform="matrix(1 0 0 1 0 0)"  x1="275.1765" y1="-215.9481" x2="246.2966" y2="494.8085">
<stop offset="0%" style="stop-color:#0000FF;stop-opacity: 1"/>
<stop offset="100%" style="stop-color:#007CFF;stop-opacity: 1"/>
</linearGradient>
<filter id="SVGID_47" y="-20%" height="140%" x="-20%" width="140%" >
	<feGaussianBlur in="SourceAlpha" stdDeviation="0"></feGaussianBlur>
	<feOffset dx="-2" dy="0" result="oBlur" ></feOffset>
	<feFlood flood-color="rgb(0,0,0)" flood-opacity="1"/>
	<feComposite in2="oBlur" operator="in" />
	<feMerge>
		<feMergeNode></feMergeNode>
		<feMergeNode in="SourceGraphic"></feMergeNode>
	</feMerge>
</filter>
<path style="stroke: none; stroke-width: 1; stroke-dasharray: none; stroke-linecap: butt; stroke-dashoffset: 0; stroke-linejoin: miter; stroke-miterlimit: 4; fill: url(#SVGID_SVGID_1__1); fill-rule: nonzero; opacity: 0.475;filter: url(#SVGID_47);"  transform=" translate(-256, -255.95)" d="M 251.7 1.1 L 37.4 124.9 c -2.7 1.5 -4.3 4.4 -4.3 7.4 v 247.4 c 0 3.1 1.6 5.9 4.3 7.4 l 214.3 123.7 c 2.7 1.5 5.9 1.5 8.6 0 l 214.3 -123.7 c 2.7 -1.5 4.3 -4.4 4.3 -7.4 V 132.3 c 0 -3.1 -1.6 -5.9 -4.3 -7.4 L 260.3 1.1 C 257.6 -0.4 254.4 -0.4 251.7 1.1 z M 303.5 416 l -43.2 25 c -2.7 1.5 -5.9 1.5 -8.6 0 l -43.3 -25 c -2.7 -1.5 -4.3 -4.4 -4.3 -7.4 v -49.9 c 0 -3.1 1.6 -5.9 4.3 -7.4 l 43.3 -25 c 2.7 -1.5 5.9 -1.5 8.6 0 l 43.2 25 c 2.7 1.5 4.3 4.4 4.3 7.4 v 49.9 C 307.8 411.6 306.2 414.5 303.5 416 z M 338 381.5 v -40.2 c 0 -3.1 -1.6 -5.9 -4.3 -7.4 l -73.4 -42.4 c -2.7 -1.5 -5.9 -1.5 -8.6 0 l -73.4 42.4 c -2.7 1.5 -4.3 4.4 -4.3 7.4 v 40.2 c 0 6.6 -7.1 10.7 -12.9 7.4 l -0.9 -0.5 c -2.7 -1.5 -4.3 -4.4 -4.3 -7.4 V 277.6 c 0 -3.1 1.6 -5.9 4.3 -7.4 l 91.5 -52.8 c 2.7 -1.5 5.9 -1.5 8.6 0 l 91.5 52.8 c 2.7 1.5 4.3 4.4 4.3 7.4 v 103.4 c 0 3.1 -1.6 5.9 -4.3 7.4 l -0.9 0.5 C 345.1 392.2 338 388.1 338 381.5 z M 401.3 344.9 v -93.4 c 0 -3.1 -1.6 -5.9 -4.3 -7.4 l -136.8 -79 c -2.7 -1.5 -5.9 -1.5 -8.6 0 L 115 244 c -2.7 1.5 -4.3 4.4 -4.3 7.4 v 93.4 c 0 6.6 -7.1 10.7 -12.9 7.4 l 0 0 c -2.7 -1.5 -4.3 -4.4 -4.3 -7.4 V 167.2 c 0 -3.1 1.6 -5.9 4.3 -7.4 l 153.9 -88.9 c 2.7 -1.5 5.9 -1.5 8.6 0 l 153.9 88.9 c 2.7 1.5 4.3 4.4 4.3 7.4 v 177.7 c 0 3.1 -1.6 5.9 -4.3 7.4 l 0 0 C 408.5 355.6 401.3 351.5 401.3 344.9 z" stroke-linecap="round" />
</g>
		<g transform="matrix(1 0 0 1 52.56 4.53)" style="filter: url(#SVGID_48);"  >
<filter id="SVGID_48" y="-20%" height="140%" x="-20%" width="140%" >
	<feGaussianBlur in="SourceAlpha" stdDeviation="0"></feGaussianBlur>
	<feOffset dx="0" dy="0" result="oBlur" ></feOffset>
	<feFlood flood-color="rgb(0,0,0)" flood-opacity="1"/>
	<feComposite in2="oBlur" operator="in" />
	<feMerge>
		<feMergeNode></feMergeNode>
		<feMergeNode in="SourceGraphic"></feMergeNode>
	</feMerge>
</filter>
		<text xml:space="preserve" font-family="AAvanteLtLight" font-size="85.25" font-style="normal" font-weight="400" style="stroke: rgb(0,0,0); stroke-width: 0; stroke-dasharray: none; stroke-linecap: butt; stroke-dashoffset: 0; stroke-linejoin: round; stroke-miterlimit: 4; fill: rgb(0,0,0); fill-rule: nonzero; opacity: 1; white-space: pre;" paint-order="stroke"  ><tspan x="-83.89" y="26.78" >ITera</tspan></text>
</g>
</g>
</g>
</svg>